<?xml version="1.0" encoding="utf-8"?>
<!-- Generator: Adobe Illustrator 15.1.0, SVG Export Plug-In . SVG Version: 6.00 Build 0)  -->
<!DOCTYPE svg PUBLIC "-//W3C//DTD SVG 1.1//EN" "http://www.w3.org/Graphics/SVG/1.1/DTD/svg11.dtd">
<svg version="1.1" id="Layer_1" xmlns="http://www.w3.org/2000/svg" xmlns:xlink="http://www.w3.org/1999/xlink" x="0px" y="0px"
	 width="285px" height="336px" viewBox="-8.833 -31 285 336" enable-background="new -8.833 -31 285 336" xml:space="preserve">
<title>noname</title>
<rect x="168.987" y="43.166" fill="none" stroke="#822B2B" width="3.937" height="6.398"/>
<polygon fill="none" stroke="#822B2B" points="163.716,48.962 170.674,55.919 177.632,48.962 "/>
<rect x="126.495" y="32.668" fill="none" stroke="#822B2B" width="3.938" height="16.896"/>
<polygon fill="none" stroke="#822B2B" points="121.224,48.962 128.183,55.919 135.14,48.962 "/>
<rect x="89.074" y="33" fill="none" stroke="#822B2B" width="3.937" height="16.896"/>
<polygon fill="none" stroke="#822B2B" points="83.802,49.294 90.76,56.251 97.718,49.294 "/>
<rect x="132.459" y="221.332" fill="none" stroke="#822B2B" width="3.937" height="4.92"/>
<polygon fill="none" stroke="#822B2B" points="141.666,225.649 127.75,225.649 134.709,232.606 "/>
<rect x="63.418" y="222.164" fill="none" stroke="#822B2B" width="3.936" height="4.92"/>
<polygon fill="none" stroke="#822B2B" points="72.625,226.482 58.709,226.482 65.668,233.439 "/>
<rect x="97.146" y="272.916" fill="none" stroke="#822B2B" width="3.937" height="4.92"/>
<polygon fill="none" stroke="#822B2B" points="91.875,273.518 105.791,273.518 98.833,266.561 "/>
<rect x="127.063" y="125.875" fill="none" stroke="#822B2B" width="3.937" height="55.625"/>
<polygon fill="none" stroke="#822B2B" points="121.792,126.478 135.708,126.478 128.75,119.521 "/>
<text transform="matrix(1 0 0 1 94 136.9985)" fill="#822B2B" font-family="'ArialMT'" font-size="20">0</text>
<text transform="matrix(1 0 0 1 156.5195 39.9995)" fill="#822B2B" font-family="'ArialMT'" font-size="20">BASE 10</text>
<text transform="matrix(1 0 0 1 101.2227 28.9985)" fill="#822B2B" font-family="'ArialMT'" font-size="20">ASCII</text>
<text transform="matrix(1 0 0 1 14.668 256.9985)" fill="#822B2B" font-family="'ArialMT'" font-size="20">65 = 01000001 BINARY</text>
<text transform="matrix(1 0 0 1 8.832 -4.882812e-04)" fill="#822B2B" font-family="'ArialMT'" font-size="20">ROCTAL CODE EXPLAINED</text>
<text transform="matrix(1 0 0 1 38.833 292.9985)" fill="#822B2B" font-family="'ArialMT'" font-size="20">MIDDLE ROW</text>
<text transform="matrix(1 0 0 1 116.6655 218.6646)" fill="#822B2B" font-family="'ArialMT'" font-size="20">BOTTOM ROW</text>
<text transform="matrix(1 0 0 1 4 219.9985)" fill="#822B2B" font-family="'ArialMT'" font-size="20">TOP ROW</text>
<text transform="matrix(1 0 0 1 80.8032 197.9985)" fill="#822B2B" font-family="'ArialMT'" font-size="20">ALWAYS 0</text>
<text transform="matrix(1 0 0 1 3 28.0659)" fill="#822B2B" font-family="'ArialMT'" font-size="20">ALWAYS 1</text>
<text transform="matrix(4.489659e-11 -1 1 4.489659e-11 69.6665 172.5591)" fill="#822B2B" font-family="'ArialMT'" font-size="20">BASE 8</text>
<text transform="matrix(1 0 0 1 94 165.4985)" fill="#822B2B" font-family="'ArialMT'" font-size="20">1</text>
<text transform="matrix(1 0 0 1 94 107.4995)" fill="#822B2B" font-family="'ArialMT'" font-size="20">1</text>
<text transform="matrix(1 0 0 1 122.668 80.4985)" fill="#822B2B" font-family="'ArialMT'" font-size="20">A = 65</text>
<rect x="140.569" y="87.519" fill="none" stroke="#822B2B" width="2.334" height="26.314"/>
<rect x="117" y="233.439" fill="none" stroke="#822B2B" width="31.666" height="2.332"/>
<rect x="148.666" y="233.439" fill="none" stroke="#822B2B" width="2.334" height="9.561"/>
<rect x="114.666" y="233.439" fill="none" stroke="#822B2B" width="2.334" height="9.561"/>
<rect x="83" y="264.229" fill="none" stroke="#822B2B" width="31.667" height="2.332"/>
<rect x="80.667" y="257" fill="none" stroke="#822B2B" width="2.333" height="9.562"/>
<rect x="114.667" y="257" fill="none" stroke="#822B2B" width="2.333" height="9.562"/>
<rect x="59.833" y="235" fill="none" stroke="#822B2B" width="19.667" height="2.332"/>
<rect x="79.5" y="235" fill="none" stroke="#822B2B" width="2.333" height="9.56"/>
<rect x="57.5" y="235" fill="none" stroke="#822B2B" width="2.333" height="9.56"/>
<rect x="113.224" y="116.167" fill="none" stroke="#822B2B" width="2.333" height="56.393"/>
<rect x="113.224" y="87.519" fill="none" stroke="#822B2B" width="2.333" height="26.314"/>
<rect x="142.903" y="87.519" fill="none" stroke="#822B2B" width="27.771" height="2.333"/>
<rect x="115.557" y="87.519" fill="none" stroke="#822B2B" width="25.014" height="2.333"/>
<rect x="9.223" y="1.833" fill="none" stroke="#822B2B" width="238.111" height="2.333"/>
<rect x="113.224" y="113.833" fill="none" stroke="#822B2B" width="29.679" height="2.333"/>
<rect x="170.674" y="144.211" fill="none" stroke="#822B2B" width="30.767" height="28.348"/>
<rect x="170.674" y="87.52" fill="none" stroke="#822B2B" width="29.349" height="28.347"/>
<rect x="86.637" y="59.173" fill="none" stroke="#822B2B" width="28.347" height="28.347"/>
<rect x="83.802" y="172.559" fill="none" stroke="#822B2B" width="116.221" height="2.834"/>
<rect x="83.802" y="56.339" fill="none" stroke="#822B2B" width="119.055" height="2.834"/>
<rect x="199.882" y="59.173" fill="none" stroke="#822B2B" width="3.115" height="116.22"/>
<rect x="83.802" y="59.173" fill="none" stroke="#822B2B" width="2.834" height="113.386"/>
</svg>
